<?xml version="1.0" encoding="utf-8"?><svg xmlns="http://www.w3.org/2000/svg" xmlns:xlink="http://www.w3.org/1999/xlink"><symbol viewBox="0 0 20 50" id="arrow-left" xmlns="http://www.w3.org/2000/svg"><path d="M18.807.89 0 25.128l1.193 1.537L20 2.427z"/><path d="M18.807 49.136 0 24.898l1.193-1.538L20 47.6z"/></symbol><symbol viewBox="0 0 21 49" id="arrow-right" xmlns="http://www.w3.org/2000/svg"><path d="m1.479.62 18.807 24.238-1.193 1.538L.286 2.158z"/><path d="m1.479 48.867 18.807-24.239-1.193-1.537L.286 47.329z"/></symbol><symbol viewBox="0 0 22 24" id="basket" xmlns="http://www.w3.org/2000/svg"><g clip-path="url(#ca)"><path d="M10.363 18.443a2.046 2.046 0 0 0-2.045 2.042 2.046 2.046 0 0 0 4.09 0 2.046 2.046 0 0 0-2.045-2.042Zm6.134 0a2.046 2.046 0 0 0-2.045 2.042 2.046 2.046 0 0 0 4.089 0 2.046 2.046 0 0 0-2.044-2.042Zm3.978-8.199L7.413 6.891a.614.614 0 0 0-.75.73L8.67 16.4h-.786L5.482 5.895a.613.613 0 0 0-.474-.464l-4.27-.882A.614.614 0 0 0 .489 5.75l3.885.802L6.797 17.15a.613.613 0 0 0 .598.477h12.07a.615.615 0 0 0 .607-.53l.858-6.175a.613.613 0 0 0-.455-.678Zm-8.14 3.91a.613.613 0 0 1-1.227 0v-2.696a.613.613 0 0 1 1.227 0v2.696Zm2.625 0a.613.613 0 0 1-1.227 0v-1.88a.613.613 0 0 1 1.227 0v1.88Zm2.625 0a.613.613 0 0 1-1.227 0v-1.226a.613.613 0 0 1 1.227 0v1.226Z"/></g><path fill-rule="evenodd" clip-rule="evenodd" d="M16.268 4.568a2.996 2.996 0 0 0-1.693-.523c-.627 0-1.21.193-1.693.523-.28-.843-.492-1.752-.492-2.383C12.39.98 13.37 0 14.575 0s2.185.98 2.185 2.185c0 .631-.212 1.54-.492 2.383Zm-4.722 2.274.024.006v-.011l-.024.005Zm4.972 1.217c-1.333-.33-2.766-.681-4.129-1.013a2.185 2.185 0 1 1 4.129 1.013Zm4.436 1.103c-.866-.217-2.155-.538-3.618-.9a2.995 2.995 0 0 0 .243-1.425c.87.18 1.762.45 2.308.765.596.344.969.928 1.067 1.56ZM9.869 6.439c-.36-.086-.706-.167-1.03-.243a2.19 2.19 0 0 1-.376-2.667 2.188 2.188 0 0 1 3.147-.7c.098.738.338 1.599.61 2.353a3.01 3.01 0 0 0-.449.774c-.628.113-1.305.278-1.902.483Zm10.124.075a3.43 3.43 0 0 1-.217.114c-.696-.295-1.587-.526-2.397-.672a3.01 3.01 0 0 0-.449-.774c.262-.727.494-1.553.599-2.273.095-.067.189-.128.278-.18a2.188 2.188 0 0 1 2.986.8 2.188 2.188 0 0 1-.8 2.985Z"/><defs><clipPath id="ca"><path transform="translate(0 3.064)" d="M0 0h20.936v20.936H0z"/></clipPath></defs></symbol><symbol viewBox="0 0 344.96 344.96" id="check" xmlns="http://www.w3.org/2000/svg"><g data-name="Слой 2"><path class="dcls-1" d="m321.85 86.24-40-23.11-23.1-40H212.5L172.48 0l-40 23.11H86.24l-23.11 40-40 23.1v46.21L0 172.48l23.11 40v46.21l40 23.11 23.11 40h46.21l40 23.1 40-23.11h46.21l23.11-40 40-23.11V212.5l23.11-40-23.11-40V86.24ZM156.91 243.07a16.79 16.79 0 0 1-23.34 0l-50.45-50.44a16.19 16.19 0 0 1 0-22.89l13.35-13.35a16.19 16.19 0 0 1 22.89 0l25.87 25.87 80.34-80.35a16.19 16.19 0 0 1 22.89 0l13.35 13.35a16.19 16.19 0 0 1 0 22.89Z" data-name="Capa 1"/></g></symbol><symbol viewBox="0 0 12 8" id="chevron-down" xmlns="http://www.w3.org/2000/svg"><path d="M10.927 0 12 1.068 6 7 0 1.062 1.073 0 6 4.877 10.927 0Z"/></symbol><symbol viewBox="0 0 7 12" id="chevron-right" xmlns="http://www.w3.org/2000/svg"><path d="M0 1.043 1.068 0 7 5.833l-5.938 5.834L0 10.624l4.877-4.79L0 1.042Z"/></symbol><symbol viewBox="0 0 21 21" id="compare" xmlns="http://www.w3.org/2000/svg"><g stroke-width="1.5" stroke-miterlimit="10" stroke-linecap="round" stroke-linejoin="round"><path d="M3.133 4.515h12.11a2.621 2.621 0 0 1 2.625 2.625v2.905"/><path d="M5.898 1.75 3.133 4.515 5.898 7.28m11.97 9.205H5.758a2.621 2.621 0 0 1-2.625-2.625v-2.905"/><path d="m15.102 19.25 2.765-2.765-2.765-2.765"/></g></symbol><symbol viewBox="0 0 24 24" id="fb" xmlns="http://www.w3.org/2000/svg"><path d="M13.397 20.997v-8.196h2.765l.411-3.209h-3.176V7.548c0-.926.258-1.56 1.587-1.56h1.684v-2.86A22.108 22.108 0 0 0 14.201 3c-2.444 0-4.122 1.492-4.122 4.231v2.355H7.332v3.21h2.753v8.201h3.312Z"/></symbol><symbol viewBox="0 0 22 22" id="filters" xmlns="http://www.w3.org/2000/svg"><path d="M17.416 1.833H4.583a2.75 2.75 0 0 0-2.75 2.75v1.073c0 .378.078.753.23 1.1v.055c.129.294.312.561.54.788l5.647 5.61v6.041a.917.917 0 0 0 .916.917.918.918 0 0 0 .413-.101l3.666-1.833a.916.916 0 0 0 .505-.816v-4.208l5.61-5.61c.228-.227.411-.494.54-.788v-.055a2.75 2.75 0 0 0 .266-1.1V4.583a2.75 2.75 0 0 0-2.75-2.75Zm-5.234 10.35a.916.916 0 0 0-.266.65v4.015l-1.833.917v-4.932a.916.916 0 0 0-.266-.65L4.96 7.332h12.08l-4.859 4.85ZM18.333 5.5H3.666v-.917a.917.917 0 0 1 .917-.916h12.833a.917.917 0 0 1 .917.916V5.5Z"/></symbol><symbol viewBox="0 0 24 24" id="instagram" xmlns="http://www.w3.org/2000/svg"><path d="M11.999 7.377a4.624 4.624 0 1 0 0 9.248 4.624 4.624 0 0 0 0-9.248Zm0 7.627a3.004 3.004 0 1 1 0-6.008 3.004 3.004 0 0 1 0 6.008Zm4.807-6.719a1.078 1.078 0 1 0 0-2.156 1.078 1.078 0 0 0 0 2.156Z"/><path d="M20.533 6.11A4.605 4.605 0 0 0 17.9 3.48a6.607 6.607 0 0 0-2.186-.42c-.963-.042-1.268-.054-3.71-.054s-2.755 0-3.71.054a6.554 6.554 0 0 0-2.184.42 4.6 4.6 0 0 0-2.633 2.63 6.585 6.585 0 0 0-.419 2.186c-.043.962-.056 1.267-.056 3.71 0 2.442 0 2.753.056 3.71.015.748.156 1.486.419 2.187a4.61 4.61 0 0 0 2.634 2.632 6.583 6.583 0 0 0 2.185.45c.963.042 1.268.055 3.71.055s2.755 0 3.71-.055a6.616 6.616 0 0 0 2.186-.42 4.613 4.613 0 0 0 2.633-2.632c.263-.7.404-1.438.419-2.186.043-.962.056-1.267.056-3.71s0-2.753-.056-3.71a6.583 6.583 0 0 0-.421-2.217Zm-1.218 9.533a5.046 5.046 0 0 1-.311 1.688 2.987 2.987 0 0 1-1.712 1.71c-.535.2-1.1.305-1.67.312-.95.044-1.218.055-3.654.055-2.438 0-2.687 0-3.655-.055a4.961 4.961 0 0 1-1.67-.311 2.984 2.984 0 0 1-1.718-1.711 5.08 5.08 0 0 1-.311-1.67c-.043-.95-.053-1.217-.053-3.653 0-2.437 0-2.686.053-3.655a5.038 5.038 0 0 1 .311-1.687c.305-.79.93-1.41 1.719-1.712a5.01 5.01 0 0 1 1.669-.311c.95-.043 1.218-.055 3.655-.055s2.687 0 3.654.055a4.96 4.96 0 0 1 1.67.31 2.99 2.99 0 0 1 1.712 1.713 5.06 5.06 0 0 1 .311 1.669c.043.95.054 1.218.054 3.655 0 2.436 0 2.698-.043 3.654h-.011v-.001Z"/></symbol><symbol viewBox="0 0 18 18" id="like" xmlns="http://www.w3.org/2000/svg"><path d="M16.714 5.987c0-.543-.072-1.022-.216-1.437-.144-.415-.328-.745-.552-.99a2.653 2.653 0 0 0-.819-.597 3.625 3.625 0 0 0-.944-.311 5.744 5.744 0 0 0-.984-.08c-.349 0-.724.085-1.125.256-.402.17-.772.385-1.11.642-.338.258-.628.5-.87.724-.24.224-.441.43-.602.617A.602.602 0 0 1 9 5.032a.602.602 0 0 1-.492-.22 7.773 7.773 0 0 0-.603-.618c-.24-.225-.53-.466-.869-.724a5.135 5.135 0 0 0-1.11-.642c-.401-.171-.776-.257-1.125-.257a5.8 5.8 0 0 0-.984.08 3.626 3.626 0 0 0-.944.312 2.652 2.652 0 0 0-.819.598c-.224.244-.408.574-.552.99-.144.414-.216.893-.216 1.436 0 1.125.626 2.313 1.878 3.566L9 15.177l5.826-5.614c1.259-1.26 1.888-2.451 1.888-3.576Zm1.286 0c0 1.48-.767 2.986-2.3 4.52l-6.258 6.027a.6.6 0 0 1-.442.18.6.6 0 0 1-.442-.18L2.29 10.486a3.328 3.328 0 0 1-.276-.261c-.117-.121-.303-.34-.558-.658a8.89 8.89 0 0 1-.683-.98c-.2-.335-.38-.74-.537-1.215A4.4 4.4 0 0 1 0 5.987C0 4.513.425 3.362 1.276 2.53c.85-.83 2.025-1.245 3.525-1.245.416 0 .84.072 1.271.216.432.144.834.338 1.205.582.372.245.692.474.96.688.267.215.522.442.763.683.241-.24.496-.468.763-.683.268-.214.588-.443.96-.688a5.142 5.142 0 0 1 1.205-.582 4.004 4.004 0 0 1 1.27-.216c1.5 0 2.676.415 3.526 1.245.85.83 1.276 1.982 1.276 3.456Z"/></symbol><symbol viewBox="0 0 15 14" id="rateStar" xmlns="http://www.w3.org/2000/svg"><path d="M14.167 5.412c.07-.354-.213-.779-.567-.779l-4.037-.566L7.72.383A.553.553 0 0 0 7.437.1c-.354-.213-.779-.071-.991.283L4.675 4.067l-4.037.566c-.213 0-.355.071-.425.213a.685.685 0 0 0 0 .991l2.904 2.834-.709 4.037c0 .142 0 .284.071.425.213.354.638.496.992.284l3.612-1.913 3.613 1.912c.07.071.212.071.354.071h.142a.735.735 0 0 0 .566-.85L11.05 8.6l2.904-2.833a.39.39 0 0 0 .213-.355Z"/></symbol><symbol viewBox="0 0 17 17" id="search" xmlns="http://www.w3.org/2000/svg"><path d="M2.005 11.68a6.83 6.83 0 0 0 9.03.56l4.524 4.521a.85.85 0 0 0 1.202-1.202l-4.523-4.521A6.835 6.835 0 0 0 6.628.002a6.839 6.839 0 0 0-4.623 2.004 6.838 6.838 0 0 0 0 9.673Zm1.202-8.47a5.14 5.14 0 0 1 8.383 5.6 5.138 5.138 0 0 1-8.721 1.293 5.137 5.137 0 0 1-1.167-3.259 5.1 5.1 0 0 1 1.505-3.636v.002Z"/><path d="M2.005 11.68a6.83 6.83 0 0 0 9.03.56l4.524 4.521a.85.85 0 0 0 1.202-1.202l-4.523-4.521A6.835 6.835 0 0 0 6.628.002a6.839 6.839 0 0 0-4.623 2.004 6.838 6.838 0 0 0 0 9.673Zm1.202-8.47a5.14 5.14 0 0 1 8.383 5.6 5.138 5.138 0 0 1-8.721 1.293 5.137 5.137 0 0 1-1.167-3.259 5.1 5.1 0 0 1 1.505-3.636v.002Z"/></symbol><symbol viewBox="0 0 16 16" id="telegram" xmlns="http://www.w3.org/2000/svg"><path d="m14.629 3.698-2.012 9.618c-.152.679-.548.848-1.11.528l-3.066-2.29-1.48 1.442c-.163.166-.3.305-.616.305l.22-3.165 5.683-5.204c.247-.223-.054-.347-.384-.123L4.839 9.29l-3.024-.959c-.658-.208-.67-.667.137-.986L13.78 2.727c.548-.208 1.027.124.849.971Z"/></symbol><symbol viewBox="0 0 16 16" id="viber" xmlns="http://www.w3.org/2000/svg"><path d="M8 1.335c-1.071.013-3.374.19-4.662 1.37-.958.948-1.292 2.35-1.331 4.084-.033 1.728-.072 4.973 3.058 5.856v1.346s-.02.538.337.648c.438.14.688-.275 1.105-.72l.778-.879c2.142.178 3.782-.232 3.97-.293.435-.139 2.883-.451 3.283-3.696.41-3.351-.2-5.463-1.301-6.418h-.007c-.332-.306-1.668-1.279-4.652-1.29 0 0-.222-.014-.578-.008Zm.037.942a7.02 7.02 0 0 1 .488.011c2.527.007 3.732.767 4.017 1.023.927.794 1.405 2.697 1.055 5.495-.332 2.713-2.317 2.885-2.685 3.002-.156.05-1.6.406-3.42.289 0 0-1.356 1.634-1.78 2.055-.067.074-.146.095-.196.085-.071-.018-.093-.107-.089-.229l.013-2.233c-2.655-.733-2.498-3.5-2.47-4.946.033-1.446.304-2.628 1.113-3.43 1.088-.982 3.043-1.115 3.953-1.122Zm.2 1.446a.166.166 0 1 0 0 .332 3.136 3.136 0 0 1 2.242.883c.606.588.9 1.378.912 2.411 0 .092.074.167.167.167V7.51a.167.167 0 0 0 .168-.165 3.588 3.588 0 0 0-1.009-2.646c-.66-.645-1.496-.977-2.48-.977Zm-2.198.382a.523.523 0 0 0-.342.067H5.69a2.61 2.61 0 0 0-.637.523 1.003 1.003 0 0 0-.256.525.71.71 0 0 0 .026.302l.01.006c.172.504.396.988.67 1.444a8.48 8.48 0 0 0 1.29 1.762l.015.022.024.017.015.018.017.015c.532.505 1.127.94 1.769 1.295.734.4 1.18.588 1.447.667v.004c.078.024.15.034.221.034.228-.016.444-.109.613-.262a2.53 2.53 0 0 0 .517-.638v-.004c.128-.241.085-.469-.1-.623-.37-.323-.77-.61-1.195-.857-.285-.155-.574-.061-.69.095l-.25.315c-.129.156-.361.134-.361.134l-.007.004C7.093 8.527 6.63 6.772 6.63 6.772s-.022-.239.139-.36l.312-.252c.15-.122.254-.41.094-.695a7.498 7.498 0 0 0-.856-1.194.475.475 0 0 0-.28-.167Zm2.486.495c-.221 0-.221.334.003.334A2.098 2.098 0 0 1 10 5.572 1.94 1.94 0 0 1 10.5 7a.168.168 0 0 0 .167.165l.007.009a.169.169 0 0 0 .167-.167c.015-.662-.191-1.218-.595-1.663C9.84 4.9 9.273 4.65 8.549 4.6h-.024Zm.274.898c-.228-.006-.236.335-.01.341.55.029.816.306.851.877a.166.166 0 0 0 .165.163h.007a.168.168 0 0 0 .16-.178c-.039-.744-.445-1.164-1.166-1.202H8.8Z"/></symbol><symbol viewBox="0 0 24 24" id="vk" xmlns="http://www.w3.org/2000/svg"><path d="M21.579 6.855c.14-.465 0-.806-.662-.806h-2.193c-.558 0-.813.295-.953.619 0 0-1.115 2.719-2.695 4.482-.51.513-.743.675-1.021.675-.139 0-.341-.162-.341-.627V6.855c0-.558-.161-.806-.626-.806H9.642c-.348 0-.558.258-.558.504 0 .528.79.65.871 2.138v3.228c0 .707-.127.836-.407.836-.743 0-2.551-2.73-3.624-5.853-.209-.607-.42-.852-.98-.852H2.752c-.627 0-.752.295-.752.619 0 .582.743 3.462 3.461 7.27 1.812 2.602 4.363 4.012 6.687 4.012 1.393 0 1.565-.313 1.565-.853v-1.966c0-.626.133-.752.574-.752.324 0 .882.164 2.183 1.417 1.486 1.486 1.732 2.153 2.567 2.153h2.192c.626 0 .939-.313.759-.931-.197-.615-.907-1.51-1.849-2.57-.512-.603-1.277-1.253-1.51-1.578-.325-.42-.231-.604 0-.976.001 0 2.672-3.761 2.95-5.04Z"/></symbol><symbol viewBox="0 0 16 16" id="whatsapp" xmlns="http://www.w3.org/2000/svg"><path fill-rule="evenodd" clip-rule="evenodd" d="M12.269 3.755A5.947 5.947 0 0 0 8.035 2 5.994 5.994 0 0 0 2.05 7.985a5.98 5.98 0 0 0 .799 2.992L2 14.077l3.173-.832c.877.477 1.86.728 2.86.728h.002a5.993 5.993 0 0 0 5.533-8.276 5.953 5.953 0 0 0-1.3-1.942Zm-4.234 9.208h-.002c-.89 0-1.765-.24-2.532-.694l-.181-.108-1.883.494.502-1.835-.118-.188a4.965 4.965 0 0 1-.76-2.647 4.982 4.982 0 0 1 6.88-4.597c.604.25 1.152.618 1.613 1.081a4.946 4.946 0 0 1 1.455 3.52 4.982 4.982 0 0 1-4.974 4.974Zm2.729-3.726c-.15-.075-.885-.436-1.022-.486-.137-.05-.236-.075-.336.074-.1.15-.387.486-.474.586-.087.1-.175.112-.324.038-.15-.075-.631-.233-1.203-.742a4.505 4.505 0 0 1-.832-1.036c-.087-.15-.009-.231.066-.306.068-.066.15-.174.224-.262.075-.087.1-.149.15-.249.05-.1.025-.187-.013-.262-.037-.075-.337-.811-.461-1.11-.121-.29-.244-.252-.336-.256a6.418 6.418 0 0 0-.286-.005.55.55 0 0 0-.4.186c-.137.15-.523.512-.523 1.248s.536 1.447.61 1.547c.075.1 1.055 1.61 2.555 2.258.358.154.636.246.853.315.358.114.684.098.942.06.287-.043.885-.362 1.01-.711.124-.35.124-.649.087-.711-.038-.063-.138-.101-.287-.176Z"/></symbol></svg>