<svg width="29" height="29" viewBox="0 0 29 29" fill="none" xmlns="http://www.w3.org/2000/svg">
<g id="Basket">
<path id="Vector" d="M24.1667 7.55212H4.83333C3.67333 7.55212 2.71875 8.50671 2.71875 9.66671V10.875C2.71875 11.745 3.25042 12.4942 3.99958 12.8205L4.89375 20.9042C5.075 22.5838 6.50083 23.8646 8.1925 23.8646H20.7833C22.475 23.8646 23.9008 22.5959 24.0821 20.9042L24.9762 12.8205C25.7254 12.4942 26.2571 11.745 26.2571 10.875V9.66671C26.2571 8.50671 25.3025 7.55212 24.1425 7.55212H24.1667ZM4.53125 9.66671C4.53125 9.49754 4.66417 9.36462 4.83333 9.36462H24.1667C24.3358 9.36462 24.4687 9.49754 24.4687 9.66671V10.875C24.4687 11.0442 24.3358 11.1771 24.1667 11.1771H4.83333C4.66417 11.1771 4.53125 11.0442 4.53125 10.875V9.66671ZM22.2937 20.7109C22.2092 21.4721 21.5687 22.0521 20.7954 22.0521H8.20458C7.43125 22.0521 6.79083 21.4721 6.70625 20.7109L5.84833 12.9896H23.1517L22.2937 20.7109Z" fill="#619AF3"/>
<path id="Vector_2" d="M14.5003 20.2396C14.9957 20.2396 15.4066 19.8288 15.4066 19.3334V15.7084C15.4066 15.213 14.9957 14.8021 14.5003 14.8021C14.0049 14.8021 13.5941 15.213 13.5941 15.7084V19.3334C13.5941 19.8288 14.0049 20.2396 14.5003 20.2396ZM19.3337 20.2396C19.8291 20.2396 20.2399 19.8288 20.2399 19.3334V15.7084C20.2399 15.213 19.8291 14.8021 19.3337 14.8021C18.8382 14.8021 18.4274 15.213 18.4274 15.7084V19.3334C18.4274 19.8288 18.8382 20.2396 19.3337 20.2396ZM9.66699 20.2396C10.1624 20.2396 10.5732 19.8288 10.5732 19.3334V15.7084C10.5732 15.213 10.1624 14.8021 9.66699 14.8021C9.17158 14.8021 8.76074 15.213 8.76074 15.7084V19.3334C8.76074 19.8288 9.17158 20.2396 9.66699 20.2396Z" fill="#619AF3"/>
</g>
</svg>
