<svg width="46" height="47" viewBox="0 0 46 47" fill="none" xmlns="http://www.w3.org/2000/svg">
<path d="M45 37.4736C45 38.2574 44.8237 39.063 44.4492 39.8469C44.0746 40.6307 43.5899 41.371 42.9509 42.0678C41.8713 43.2435 40.6815 44.0927 39.3375 44.637C38.0155 45.1814 36.5834 45.4644 35.0411 45.4644C32.7937 45.4644 30.3921 44.9419 27.8583 43.875C25.3245 42.8081 22.7907 41.371 20.2789 39.5638C17.7189 37.7133 15.3032 35.6754 13.0521 33.4673C10.824 31.2508 8.76907 28.8707 6.90486 26.3474C5.09815 23.8652 3.64397 21.383 2.58638 18.9226C1.52879 16.4405 1 14.0672 1 11.8027C1 10.3221 1.2644 8.90687 1.79319 7.60046C2.32198 6.27228 3.15924 5.05297 4.32699 3.9643C5.73711 2.59258 7.27942 1.9176 8.90987 1.9176C9.52679 1.9176 10.1437 2.04824 10.6945 2.30952C11.2674 2.5708 11.7742 2.96273 12.1708 3.52883L17.2824 10.6487C17.679 11.1931 17.9654 11.6939 18.1637 12.1729C18.362 12.6301 18.4722 13.0874 18.4722 13.5011C18.4722 14.0236 18.318 14.5462 18.0095 15.047C17.7231 15.5478 17.3045 16.0703 16.7757 16.5929L15.1012 18.313C14.8588 18.5525 14.7486 18.8355 14.7486 19.1839C14.7486 19.3581 14.7707 19.5105 14.8147 19.6847C14.8808 19.8589 14.9469 19.9895 14.991 20.1202C15.3876 20.8387 16.0706 21.775 17.0401 22.9072C18.0315 24.0394 19.0891 25.1934 20.2349 26.3474C21.4246 27.5014 22.5704 28.5683 23.7381 29.5481C24.8838 30.5061 25.8312 31.1593 26.5804 31.5512C26.6905 31.5948 26.8227 31.6601 26.977 31.7254C27.1532 31.7907 27.3295 31.8125 27.5278 31.8125C27.9024 31.8125 28.1888 31.6819 28.4311 31.4423L30.1057 29.8093C30.6565 29.265 31.1853 28.8513 31.692 28.59C32.1988 28.2852 32.7056 28.1328 33.2564 28.1328C33.675 28.1328 34.1157 28.2199 34.6004 28.4158C35.0851 28.6118 35.5919 28.8949 36.1427 29.265L43.4357 34.3818C44.0085 34.7737 44.4051 35.2309 44.6475 35.7752C44.8678 36.3196 45 36.8639 45 37.4736Z" stroke="#7B53EF" stroke-width="2" stroke-miterlimit="10"/>
</svg>
