<svg width="55" height="54" viewBox="0 0 55 54" fill="none" xmlns="http://www.w3.org/2000/svg">
<g id="Box">
<path id="Vector" d="M30.0221 3.67629e-06V0.00740644C30.011 0.00719795 30 0.00719795 29.989 0.00740644C29.9589 0.00586061 29.9288 0.00586061 29.8988 0.00740644C29.8685 0.0119955 29.8384 0.0181725 29.8086 0.0259136C29.7787 0.0342182 29.7493 0.0441017 29.7203 0.0555251C29.6885 0.0642441 29.6572 0.074747 29.6265 0.0869872L7.65688 10.1031C7.46768 10.1592 7.30127 10.2775 7.18278 10.4401C7.06428 10.6027 7.00013 10.8007 7 11.0044V38.4856C6.99955 38.6648 7.04869 38.8403 7.14161 38.9915C7.23454 39.1427 7.36737 39.2632 7.5244 39.3388L29.6044 49.9119C29.7019 49.9584 29.8065 49.9866 29.9135 49.9952C29.9209 49.9966 29.9282 49.9978 29.9356 49.9989C29.943 49.999 29.9503 49.999 29.9577 49.9989C30.1047 50.0062 30.2512 49.9763 30.3846 49.9119L52.4719 39.3314C52.6294 39.2565 52.7628 39.1365 52.8564 38.9857C52.9499 38.8348 52.9998 38.6593 53 38.4801V10.9803C52.9994 10.7599 52.9239 10.5468 52.7866 10.3783C52.6493 10.2098 52.4591 10.0966 52.2493 10.0586H52.2456L30.3735 0.0721816C30.2622 0.0241924 30.1427 -0.000345571 30.0221 3.67629e-06ZM30.0184 1.96176L49.5997 10.8989L41.2829 13.9433C41.2286 13.9015 41.17 13.8661 41.1081 13.8378L22.5498 5.36893L30.0184 1.96176ZM20.3032 6.39238L20.4081 6.43864L20.5001 6.48121L20.6068 6.52933L38.8154 14.8427L29.9742 18.0778L10.3819 10.9137L20.3032 6.39052V6.39238ZM51.1858 12.3091V37.8768L30.909 47.5856V19.7268L51.1858 12.3091ZM8.81424 12.3295L29.0763 19.7434V47.5875L8.81424 37.886V12.3313V12.3295Z" fill="#7B53EF"/>
</g>
</svg>
