<svg width="49" height="49" viewBox="0 0 49 49" fill="none" xmlns="http://www.w3.org/2000/svg">
<g id="Frame 3">
<path id="Vector" d="M15.1958 24.306C13.7737 20.7954 13.6199 16.9065 14.7605 13.2966C15.9011 9.68669 18.2661 6.57728 21.4558 4.49393C24.6454 2.41059 28.464 1.48109 32.2661 1.86255C36.0683 2.24401 39.6207 3.91303 42.323 6.5875C45.0253 9.26197 46.7117 12.7778 47.0971 16.5408C47.4825 20.3038 46.5434 24.0831 44.4383 27.2399C42.3333 30.3966 39.1915 32.7373 35.5441 33.8661C31.8966 34.9949 27.9672 34.8428 24.42 33.4353L24.4202 33.4349L21.3837 36.4402H15.8493V41.9176H10.3149V47.395H1.09082V38.266L15.1962 24.3058L15.1958 24.306Z" stroke="#7B53EF" stroke-width="2" stroke-linecap="round" stroke-linejoin="round"/>
<path id="Vector_2" opacity="0.5" d="M35.3635 14.645C36.0162 14.645 36.5453 14.1213 36.5453 13.4753C36.5453 12.8293 36.0162 12.3057 35.3635 12.3057C34.7108 12.3057 34.1816 12.8293 34.1816 13.4753C34.1816 14.1213 34.7108 14.645 35.3635 14.645Z" stroke="#7B53EF" stroke-width="2" stroke-linecap="round" stroke-linejoin="round"/>
<path id="Vector_3" d="M36.7273 13.4753C36.7273 14.2052 36.1265 14.8146 35.3636 14.8146C34.6007 14.8146 34 14.2052 34 13.4753C34 12.7453 34.6007 12.136 35.3636 12.136C36.1265 12.136 36.7273 12.7453 36.7273 13.4753Z" fill="black" stroke="#7B53EF" stroke-width="2"/>
</g>
</svg>
