<svg width="134" height="17" viewBox="0 0 134 17" fill="none" xmlns="http://www.w3.org/2000/svg">
<g id="Group">
<path id="Vector" d="M61.8311 4.34131V5.10313C61.0609 4.53619 60.1126 4.19514 59.0843 4.19514H56.9919C54.4366 4.19514 52.3576 6.26359 52.3576 8.80595C52.3576 11.3483 54.4366 13.4168 56.9919 13.4168H59.0843C60.1126 13.4168 61.0609 13.0757 61.8311 12.5088V15.1176H54.2407V16.9911H61.8311H62.7748H63.7186V4.33688H61.8311V4.34131ZM59.0843 11.5432H56.9919C55.4783 11.5432 54.2452 10.3163 54.2452 8.81038C54.2452 7.30445 55.4783 6.07756 56.9919 6.07756H59.0843C60.5979 6.07756 61.8311 7.30445 61.8311 8.81482C61.8311 10.3163 60.5979 11.5432 59.0843 11.5432ZM50.6125 8.80595V13.3636H48.7294V8.80595C48.7294 7.29559 47.4962 6.0687 45.9826 6.0687H43.8902C42.3766 6.0687 41.1435 7.2956 41.1435 8.80153V13.3016H39.2604V8.80153V4.31916H41.1435V5.09871C41.9136 4.53177 42.8619 4.19071 43.8902 4.19071H45.9826C48.5335 4.19957 50.6125 6.26359 50.6125 8.80595ZM35.1513 2.04254V1.61734C35.1513 1.09912 35.5743 0.678345 36.0951 0.678345C36.616 0.678345 37.0389 1.09912 37.0389 1.61734V2.04254C37.0389 2.56076 36.616 2.98154 36.0951 2.98154C35.5698 2.98154 35.1513 2.56076 35.1513 2.04254ZM35.1513 4.32359H37.0345V13.3105H35.1513V4.32359ZM32.9343 8.80595V13.3636H31.0512V8.80595C31.0512 7.29559 29.8181 6.0687 28.3045 6.0687H26.2121C24.6985 6.0687 23.4653 7.2956 23.4653 8.80153V13.3016H21.5822V8.80153V4.31916H23.4653V5.09871C24.2355 4.53177 25.1837 4.19071 26.2121 4.19071H28.3045C30.8553 4.19957 32.9343 6.26359 32.9343 8.80595ZM17.4732 2.04254V1.61734C17.4732 1.09912 17.8961 0.678345 18.417 0.678345C18.9378 0.678345 19.3608 1.09912 19.3608 1.61734V2.04254C19.3608 2.56076 18.9378 2.98154 18.417 2.98154C17.8961 2.98154 17.4732 2.56076 17.4732 2.04254ZM17.4732 4.32359H19.3563V13.3105H17.4732V4.32359ZM12.3225 0.682778H15.2606V13.2617H13.3775V2.55633H13.2974L7.67475 10.427L2.05212 2.55633H1.97198V13.2617H0.0888672V0.682778H3.02706L7.67921 7.18929L12.3225 0.682778Z" fill="#0F1A4D"/>
<path id="Vector_2" d="M118.939 4.19954H116.847C114.291 4.19954 112.212 6.26797 112.212 8.81034C112.212 11.3527 114.291 13.4212 116.847 13.4212H118.939C121.494 13.4212 123.573 11.3527 123.573 8.81034C123.573 6.26355 121.494 4.19954 118.939 4.19954ZM118.939 11.5432H116.847C115.333 11.5432 114.1 10.3163 114.1 8.81034C114.1 7.30441 115.333 6.07752 116.847 6.07752H118.939C120.453 6.07752 121.686 7.30441 121.686 8.81478C121.686 10.3163 120.453 11.5432 118.939 11.5432ZM80.0924 0.682739H72.6846V13.4212H80.0924C82.6477 13.4212 84.7267 11.3527 84.7267 8.81034V5.29355C84.7267 2.75118 82.6477 0.682739 80.0924 0.682739ZM82.8392 8.80592C82.8392 10.3118 81.606 11.5387 80.0924 11.5387H74.5677V2.55187H80.0924C81.606 2.55187 82.8392 3.77876 82.8392 5.28469V8.80592ZM106.305 4.19954H104.212C103.184 4.19954 102.231 4.54058 101.466 5.10752V4.3457H99.5824V17H101.466V12.5176C102.236 13.0845 103.184 13.4256 104.212 13.4256H106.305C108.86 13.4256 110.939 11.3571 110.939 8.81478C110.939 6.26355 108.86 4.19954 106.305 4.19954ZM106.305 11.5432H104.212C102.699 11.5432 101.466 10.3163 101.466 8.81034C101.466 7.30441 102.699 6.07752 104.212 6.07752H106.305C107.818 6.07752 109.051 7.30441 109.051 8.81478C109.051 10.3163 107.818 11.5432 106.305 11.5432ZM133.741 11.5432V13.4167H126.836V6.07309H124.78V4.19954H126.836V0.749175H128.72V4.19954H133.051V6.07309H128.72V11.5432H133.741ZM93.0427 4.19954H90.9504C88.395 4.19954 86.316 6.26797 86.316 8.81034C86.316 11.3527 88.395 13.4212 90.9504 13.4212H92.2013H93.0472H96.7644V11.5476H93.1451V11.5432C93.1139 11.5432 93.0783 11.5476 93.0472 11.5476H92.2013H90.9504C89.7662 11.5476 88.7556 10.7991 88.3683 9.74934H97.677V8.81034C97.6726 6.26355 95.5936 4.19954 93.0427 4.19954ZM88.3639 7.87135C88.7512 6.82163 89.7617 6.07309 90.9459 6.07309H93.0383C94.2224 6.07309 95.233 6.82163 95.6203 7.87135H88.3639Z" fill="#0F1A4D"/>
</g>
</svg>
