<svg width="18" height="18" viewBox="0 0 18 18" fill="none" xmlns="http://www.w3.org/2000/svg">
<g id="Heart">
<path id="Vector" d="M16.7143 5.98666C16.7143 5.44425 16.6423 4.96545 16.4983 4.55028C16.3544 4.1351 16.1702 3.8053 15.9459 3.56088C15.7215 3.31646 15.4487 3.11724 15.1272 2.96322C14.8058 2.8092 14.4911 2.70541 14.183 2.65184C13.875 2.59827 13.5469 2.57148 13.1987 2.57148C12.8504 2.57148 12.4754 2.65686 12.0737 2.82762C11.6719 2.99838 11.3019 3.21266 10.9637 3.47048C10.6256 3.72829 10.3359 3.96936 10.0949 4.19369C9.85379 4.41802 9.6529 4.62394 9.49219 4.81144C9.37165 4.95876 9.20759 5.03242 9 5.03242C8.79241 5.03242 8.62835 4.95876 8.50781 4.81144C8.3471 4.62394 8.1462 4.41802 7.90513 4.19369C7.66406 3.96936 7.37444 3.72829 7.03627 3.47048C6.6981 3.21266 6.32812 2.99838 5.92634 2.82762C5.52455 2.65686 5.14955 2.57148 4.80134 2.57148C4.45312 2.57148 4.125 2.59827 3.81696 2.65184C3.50893 2.70541 3.1942 2.8092 2.87277 2.96322C2.55134 3.11724 2.27846 3.31646 2.05413 3.56088C1.8298 3.8053 1.64565 4.1351 1.50167 4.55028C1.3577 4.96545 1.28571 5.44425 1.28571 5.98666C1.28571 7.11166 1.91183 8.30027 3.16406 9.55251L9 15.1775L14.8259 9.56255C16.0848 8.30362 16.7143 7.11166 16.7143 5.98666ZM18 5.98666C18 7.46657 17.2333 8.97327 15.6998 10.5067L9.44196 16.5335C9.32143 16.6541 9.17411 16.7143 9 16.7143C8.82589 16.7143 8.67857 16.6541 8.55804 16.5335L2.29018 10.4867C2.22321 10.4331 2.13114 10.346 2.01395 10.2255C1.89676 10.105 1.71094 9.88565 1.45647 9.56757C1.20201 9.24949 0.97433 8.92304 0.773438 8.58822C0.572545 8.2534 0.393415 7.84827 0.236049 7.37282C0.078683 6.89737 0 6.43532 0 5.98666C0 4.51344 0.425223 3.36166 1.27567 2.5313C2.12612 1.70095 3.30134 1.28577 4.80134 1.28577C5.21652 1.28577 5.64007 1.35775 6.07199 1.50173C6.50391 1.6457 6.90569 1.8399 7.27734 2.08432C7.649 2.32874 7.96875 2.55809 8.23661 2.77237C8.50446 2.98666 8.75893 3.21434 9 3.45541C9.24107 3.21434 9.49554 2.98666 9.76339 2.77237C10.0312 2.55809 10.351 2.32874 10.7227 2.08432C11.0943 1.8399 11.4961 1.6457 11.928 1.50173C12.3599 1.35775 12.7835 1.28577 13.1987 1.28577C14.6987 1.28577 15.8739 1.70095 16.7243 2.5313C17.5748 3.36166 18 4.51344 18 5.98666Z" fill="#47B0FF"/>
</g>
</svg>
