<svg width="15" height="14" viewBox="0 0 15 14" fill="none" xmlns="http://www.w3.org/2000/svg">
<g id="Frame 6">
<path id="Vector" d="M14.1667 5.41234C14.2375 5.05818 13.9542 4.63318 13.6 4.63318L9.5625 4.06651L7.72083 0.383176C7.65 0.241509 7.57917 0.170676 7.4375 0.0998424C7.08333 -0.112658 6.65833 0.0290091 6.44583 0.383176L4.675 4.06651L0.6375 4.63318C0.425 4.63318 0.283333 4.70401 0.2125 4.84568C-0.0708333 5.12901 -0.0708333 5.55401 0.2125 5.83734L3.11667 8.67068L2.40833 12.7082C2.40833 12.8498 2.40833 12.9915 2.47917 13.1332C2.69167 13.4873 3.11667 13.629 3.47083 13.4165L7.08333 11.504L10.6958 13.4165C10.7667 13.4873 10.9083 13.4873 11.05 13.4873C11.1208 13.4873 11.1208 13.4873 11.1917 13.4873C11.5458 13.4165 11.8292 13.0623 11.7583 12.6373L11.05 8.59984L13.9542 5.76651C14.0958 5.69568 14.1667 5.55401 14.1667 5.41234Z" fill="#EED863"/>
</g>
</svg>
