<svg width="199" height="50" viewBox="0 0 199 50" fill="none" xmlns="http://www.w3.org/2000/svg">
<path d="M47.1913 19.8584L45.8283 21.2145L44.462 19.8552L41.7328 17.1398L39.0035 14.4244L36.2743 11.709L34.7859 10.2282C34.6026 10.0459 34.384 9.89554 34.1397 9.80918C33.4872 9.5757 32.7896 9.74841 32.3299 10.209L30.819 11.7122L28.0897 14.4276L26.7203 15.7901L23.991 18.5055L21.2618 15.7901L19.8923 14.4276L17.1631 11.7122L15.6747 10.2314C15.4914 10.0491 15.2728 9.89873 15.0285 9.81238C14.3759 9.5789 13.6784 9.75161 13.2154 10.209L11.7045 11.7122L8.97529 14.4276L6.24603 17.143L3.51678 19.8584L2.15376 21.2145L0.790737 19.8584C0.0385043 19.11 0.0385043 17.8946 0.790737 17.143L3.51999 14.4276L6.24925 11.7122L8.50595 9.46696C8.80813 9.16631 9.21639 9 9.64394 9H14.4338H19.2237C19.6512 9 20.0595 9.16951 20.3617 9.46696L22.6183 11.7122L23.9878 13.0747L25.3572 11.7122L27.6139 9.46696C27.9161 9.16631 28.3244 9 28.7519 9H33.5418H38.3317C38.7592 9 39.1675 9.16951 39.4697 9.46696L41.7264 11.7122L44.4556 14.4276L47.1849 17.143L47.1881 17.1462C47.9435 17.8946 47.9435 19.11 47.1913 19.8584Z" fill="#6CBCF8"/>
<path d="M41.7297 18.4991L39.473 16.2538C39.1708 15.9532 38.7625 15.7869 38.335 15.7869H33.5451H28.7553C28.3277 15.7869 27.9194 15.9564 27.6173 16.2538L25.3606 18.4991L23.9911 19.8616L22.6217 18.4991L20.365 16.2538C20.0628 15.9532 19.6545 15.7869 19.227 15.7869H14.4371H9.64726C9.21971 15.7869 8.81144 15.9564 8.50926 16.2538L6.25256 18.4991L3.52331 21.2145L2.8418 21.8925L5.57105 24.6079L6.25256 23.9299L8.98182 21.2145L11.7111 18.4991L13.222 16.9958C13.5434 16.676 13.9838 16.4937 14.4403 16.4937C14.8968 16.4937 15.334 16.6728 15.6587 16.9958L17.1696 18.4991L19.8988 21.2145L21.2683 22.577L22.6249 23.9267L23.361 24.6591L23.9943 25.2892L25.3638 23.9267L26.7204 22.577L28.0898 21.2145L30.8191 18.4991L32.33 16.9958C32.6514 16.676 33.0919 16.4937 33.5483 16.4937C34.0048 16.4937 34.442 16.6728 34.7667 16.9958L36.2776 18.4991L39.0068 21.2145L41.7361 23.9299L42.4208 24.6111L45.1501 21.8957L44.4654 21.2145L41.7297 18.4991Z" fill="#619AF3"/>
<path d="M39.4733 23.0408C39.1711 22.7402 38.7629 22.5739 38.3353 22.5739H33.5455H28.7556C28.3281 22.5739 27.9198 22.7434 27.6176 23.0408L25.3609 25.2861L25.3545 25.2925H30.8098L30.8162 25.2861L32.3271 23.7828C32.6486 23.463 33.089 23.2807 33.5455 23.2807C34.002 23.2807 34.4392 23.4598 34.7638 23.7828L36.2747 25.2861L36.2812 25.2925H41.7364L41.73 25.2861L39.4733 23.0408Z" fill="#667AEF"/>
<path d="M20.362 23.0408C20.0598 22.7402 19.6516 22.5739 19.224 22.5739H14.4341H9.64429C9.21674 22.5739 8.80847 22.7434 8.50629 23.0408L6.24959 25.2861L6.24316 25.2925H11.6985L11.7049 25.2861L13.2158 23.7828C13.5373 23.463 13.9777 23.2807 14.4341 23.2807C14.8906 23.2807 15.3278 23.4598 15.6525 23.7828L17.1634 25.2861L17.1698 25.2925H22.6251L22.6187 25.2861L20.362 23.0408Z" fill="#667AEF"/>
<path d="M40.7683 26.2488L25.6015 41.3418C24.7142 42.2245 23.2741 42.2245 22.3868 41.3418L7.2168 26.2488H17.0698C17.7513 26.2488 18.4071 26.5174 18.8893 26.9972L22.5283 30.6177C23.3384 31.4237 24.65 31.4237 25.4601 30.6177L29.0991 26.9972C29.5813 26.5174 30.2371 26.2488 30.9186 26.2488H40.7683Z" fill="url(#paint0_linear_1621_2065)"/>
<path d="M123.831 15.3413V16.1031C123.061 15.5362 122.113 15.1951 121.084 15.1951H118.992C116.437 15.1951 114.358 17.2636 114.358 19.806C114.358 22.3483 116.437 24.4168 118.992 24.4168H121.084C122.113 24.4168 123.061 24.0757 123.831 23.5088V26.1176H116.241V27.9911H123.831H124.775H125.719V15.3369H123.831V15.3413ZM121.084 22.5432H118.992C117.478 22.5432 116.245 21.3163 116.245 19.8104C116.245 18.3044 117.478 17.0776 118.992 17.0776H121.084C122.598 17.0776 123.831 18.3045 123.831 19.8148C123.831 21.3163 122.598 22.5432 121.084 22.5432ZM112.612 19.806V24.3636H110.729V19.806C110.729 18.2956 109.496 17.0687 107.983 17.0687H105.89C104.377 17.0687 103.143 18.2956 103.143 19.8015V24.3016H101.26V19.8015V15.3192H103.143V16.0987C103.914 15.5318 104.862 15.1907 105.89 15.1907H107.983C110.533 15.1996 112.612 17.2636 112.612 19.806ZM97.1513 13.0425V12.6173C97.1513 12.0991 97.5743 11.6783 98.0951 11.6783C98.616 11.6783 99.0389 12.0991 99.0389 12.6173V13.0425C99.0389 13.5608 98.616 13.9815 98.0951 13.9815C97.5698 13.9815 97.1513 13.5608 97.1513 13.0425ZM97.1513 15.3236H99.0345V24.3105H97.1513V15.3236ZM94.9343 19.806V24.3636H93.0512V19.806C93.0512 18.2956 91.8181 17.0687 90.3045 17.0687H88.2121C86.6985 17.0687 85.4653 18.2956 85.4653 19.8015V24.3016H83.5822V19.8015V15.3192H85.4653V16.0987C86.2355 15.5318 87.1837 15.1907 88.2121 15.1907H90.3045C92.8553 15.1996 94.9343 17.2636 94.9343 19.806ZM79.4732 13.0425V12.6173C79.4732 12.0991 79.8961 11.6783 80.417 11.6783C80.9378 11.6783 81.3608 12.0991 81.3608 12.6173V13.0425C81.3608 13.5608 80.9378 13.9815 80.417 13.9815C79.8961 13.9815 79.4732 13.5608 79.4732 13.0425ZM79.4732 15.3236H81.3563V24.3105H79.4732V15.3236ZM74.3225 11.6828H77.2606V24.2617H75.3775V13.5563H75.2974L69.6748 21.427L64.0521 13.5563H63.972V24.2617H62.0889V11.6828H65.0271L69.6792 18.1893L74.3225 11.6828Z" fill="#0F1A4D"/>
<path d="M180.939 15.1995H178.847C176.291 15.1995 174.212 17.268 174.212 19.8103C174.212 22.3527 176.291 24.4212 178.847 24.4212H180.939C183.494 24.4212 185.573 22.3527 185.573 19.8103C185.573 17.2635 183.494 15.1995 180.939 15.1995ZM180.939 22.5432H178.847C177.333 22.5432 176.1 21.3163 176.1 19.8103C176.1 18.3044 177.333 17.0775 178.847 17.0775H180.939C182.453 17.0775 183.686 18.3044 183.686 19.8148C183.686 21.3163 182.453 22.5432 180.939 22.5432ZM142.092 11.6827H134.685V24.4212H142.092C144.648 24.4212 146.727 22.3527 146.727 19.8103V16.2936C146.727 13.7512 144.648 11.6827 142.092 11.6827ZM144.839 19.8059C144.839 21.3118 143.606 22.5387 142.092 22.5387H136.568V13.5519H142.092C143.606 13.5519 144.839 14.7788 144.839 16.2847V19.8059ZM168.305 15.1995H166.212C165.184 15.1995 164.231 15.5406 163.466 16.1075V15.3457H161.582V28H163.466V23.5176C164.236 24.0845 165.184 24.4256 166.212 24.4256H168.305C170.86 24.4256 172.939 22.3571 172.939 19.8148C172.939 17.2635 170.86 15.1995 168.305 15.1995ZM168.305 22.5432H166.212C164.699 22.5432 163.466 21.3163 163.466 19.8103C163.466 18.3044 164.699 17.0775 166.212 17.0775H168.305C169.818 17.0775 171.051 18.3044 171.051 19.8148C171.051 21.3163 169.818 22.5432 168.305 22.5432ZM195.741 22.5432V24.4167H188.836V17.0731H186.78V15.1995H188.836V11.7492H190.72V15.1995H195.051V17.0731H190.72V22.5432H195.741ZM155.043 15.1995H152.95C150.395 15.1995 148.316 17.268 148.316 19.8103C148.316 22.3527 150.395 24.4212 152.95 24.4212H154.201H155.047H158.764V22.5476H155.145V22.5432C155.114 22.5432 155.078 22.5476 155.047 22.5476H154.201H152.95C151.766 22.5476 150.756 21.7991 150.368 20.7493H159.677V19.8103C159.673 17.2635 157.594 15.1995 155.043 15.1995ZM150.364 18.8714C150.751 17.8216 151.762 17.0731 152.946 17.0731H155.038C156.222 17.0731 157.233 17.8216 157.62 18.8714H150.364Z" fill="#0F1A4D"/>
<path d="M65.3545 42.5566H62.752L62.7393 41.8965H64.98C65.437 41.8965 65.8263 41.8309 66.1479 41.6997C66.4696 41.5685 66.7129 41.3739 66.8779 41.1157C67.0472 40.8534 67.1318 40.5317 67.1318 40.1509C67.1318 39.7616 67.0493 39.4399 66.8843 39.186C66.7192 38.9279 66.4717 38.7375 66.1416 38.6147C65.8115 38.492 65.3968 38.4307 64.8975 38.4307H62.9551V47H62.1743V37.7578H64.8975C65.3672 37.7578 65.7882 37.8044 66.1606 37.8975C66.533 37.9906 66.8504 38.1366 67.1128 38.3354C67.3752 38.5343 67.5741 38.7861 67.7095 39.0908C67.8491 39.3913 67.9189 39.751 67.9189 40.1699C67.9189 40.5508 67.8343 40.8957 67.665 41.2046C67.4958 41.5093 67.2567 41.759 66.9478 41.9536C66.6431 42.144 66.277 42.2625 65.8496 42.3091L65.3545 42.5566ZM65.2974 47H62.5044L62.9043 46.3335H65.2974C65.7544 46.3335 66.1437 46.2573 66.4653 46.105C66.7912 45.9484 67.0409 45.7262 67.2144 45.4385C67.3879 45.1507 67.4746 44.8079 67.4746 44.4102C67.4746 44.0589 67.3984 43.7437 67.2461 43.4644C67.0938 43.1851 66.861 42.965 66.5479 42.8042C66.2347 42.6392 65.8369 42.5566 65.3545 42.5566H63.7358L63.7485 41.8965H66.04L66.1797 42.1313C66.5944 42.1737 66.9562 42.3027 67.2651 42.5186C67.5783 42.7301 67.8195 42.9989 67.9888 43.3247C68.1623 43.6506 68.249 44.0081 68.249 44.3975C68.249 44.9561 68.1242 45.43 67.8745 45.8193C67.6291 46.2044 67.2842 46.4985 66.8398 46.7017C66.3997 46.9006 65.8856 47 65.2974 47ZM72.502 46.4731C72.8236 46.4731 73.124 46.4139 73.4033 46.2954C73.6868 46.1727 73.9196 45.9928 74.1016 45.7559C74.2878 45.5146 74.3936 45.2205 74.4189 44.8735H75.1426C75.1214 45.3094 74.9881 45.6987 74.7427 46.0415C74.5015 46.38 74.1841 46.6466 73.7905 46.8413C73.4012 47.0317 72.9717 47.127 72.502 47.127C72.0238 47.127 71.6006 47.0402 71.2324 46.8667C70.8685 46.6932 70.5638 46.452 70.3184 46.1431C70.0729 45.8299 69.8867 45.466 69.7598 45.0513C69.637 44.6323 69.5757 44.1816 69.5757 43.6992V43.4326C69.5757 42.9502 69.637 42.5016 69.7598 42.0869C69.8867 41.668 70.0729 41.304 70.3184 40.9951C70.5638 40.682 70.8685 40.4386 71.2324 40.2651C71.5964 40.0916 72.0174 40.0049 72.4956 40.0049C72.9865 40.0049 73.4266 40.1043 73.8159 40.3032C74.2095 40.5021 74.5226 40.7835 74.7554 41.1475C74.9924 41.5114 75.1214 41.943 75.1426 42.4424H74.4189C74.3978 42.0742 74.3005 41.7568 74.127 41.4902C73.9535 41.2236 73.7249 41.0184 73.4414 40.8745C73.1579 40.7306 72.8426 40.6587 72.4956 40.6587C72.1063 40.6587 71.7741 40.7349 71.499 40.8872C71.224 41.0353 70.9997 41.2406 70.8262 41.5029C70.6569 41.7611 70.5321 42.0573 70.4517 42.3916C70.3713 42.7217 70.3311 43.0687 70.3311 43.4326V43.6992C70.3311 44.0674 70.3691 44.4186 70.4453 44.7529C70.5257 45.083 70.6506 45.3771 70.8198 45.6353C70.9933 45.8934 71.2176 46.0986 71.4927 46.251C71.772 46.3991 72.1084 46.4731 72.502 46.4731ZM79.3257 47.127C78.8771 47.127 78.4645 47.0444 78.0879 46.8794C77.7155 46.7144 77.3896 46.4816 77.1104 46.1812C76.8353 45.8807 76.6216 45.5252 76.4692 45.1147C76.3211 44.7 76.2471 44.2472 76.2471 43.7563V43.4834C76.2471 42.9544 76.3254 42.4762 76.4819 42.0488C76.6385 41.6214 76.8543 41.2554 77.1294 40.9507C77.4045 40.646 77.7176 40.4132 78.0688 40.2524C78.4243 40.0874 78.7967 40.0049 79.186 40.0049C79.6219 40.0049 80.0091 40.0832 80.3477 40.2397C80.6862 40.3921 80.9697 40.61 81.1982 40.8936C81.431 41.1729 81.6066 41.505 81.7251 41.8901C81.8436 42.271 81.9028 42.6921 81.9028 43.1533V43.6167H76.7041V42.9692H81.1475V42.8804C81.139 42.4953 81.0607 42.1356 80.9126 41.8013C80.7687 41.4627 80.5529 41.1877 80.2651 40.9761C79.9774 40.7645 79.6177 40.6587 79.186 40.6587C78.8644 40.6587 78.5682 40.7264 78.2974 40.8618C78.0308 40.9972 77.8001 41.1919 77.6055 41.4458C77.415 41.6955 77.2669 41.9938 77.1611 42.3408C77.0596 42.6836 77.0088 43.0645 77.0088 43.4834V43.7563C77.0088 44.1372 77.0638 44.4927 77.1738 44.8228C77.2881 45.1486 77.4489 45.4364 77.6562 45.686C77.8678 45.9357 78.1175 46.1304 78.4053 46.27C78.693 46.4097 79.0104 46.4795 79.3574 46.4795C79.7637 46.4795 80.1234 46.4054 80.4365 46.2573C80.7497 46.105 81.0311 45.8659 81.2808 45.54L81.7568 45.9082C81.6087 46.1283 81.4225 46.3314 81.1982 46.5176C80.9782 46.7038 80.7137 46.8519 80.4048 46.9619C80.0959 47.0719 79.7362 47.127 79.3257 47.127ZM87.7935 40.1318H88.5488L88.4346 42.6074C88.4049 43.2676 88.3309 43.841 88.2124 44.3276C88.0981 44.8101 87.9564 45.2227 87.7871 45.5654C87.6178 45.904 87.4316 46.1896 87.2285 46.4224C87.0296 46.6509 86.8265 46.8434 86.6191 47H86.2065L86.2192 46.3525L86.4097 46.3462C86.5324 46.1981 86.6593 46.0309 86.7905 45.8447C86.9259 45.6543 87.055 45.4215 87.1777 45.1465C87.3005 44.8714 87.4062 44.5286 87.4951 44.1182C87.584 43.7077 87.6432 43.2041 87.6729 42.6074L87.7935 40.1318ZM88.041 40.1318H91.8433V47H91.0879V40.8428H88.041V40.1318ZM85.9146 46.3462H92.5605V49.0186H91.7988V47H86.6382V49.0186H85.9146V46.3462ZM98.686 40.1318V40.792H95.2075V40.1318H98.686ZM99.3018 40.1318V47H98.5464V40.1318H99.3018ZM95.0044 40.1318H95.7598L95.6074 43.3501C95.582 43.8706 95.5397 44.3319 95.4805 44.7339C95.4255 45.1359 95.3493 45.4808 95.252 45.7686C95.1546 46.0521 95.0298 46.2848 94.8774 46.4668C94.7293 46.6488 94.5495 46.7842 94.3379 46.873C94.1263 46.9577 93.8787 47 93.5952 47H93.3096V46.3145L93.5444 46.3081C93.7264 46.2996 93.8851 46.2616 94.0205 46.1938C94.1602 46.1261 94.2786 46.0182 94.376 45.8701C94.4775 45.722 94.5601 45.5273 94.6235 45.2861C94.6912 45.0449 94.7441 44.7508 94.7822 44.4038C94.8245 44.0526 94.8563 43.64 94.8774 43.166L95.0044 40.1318ZM102.85 43.8516H103.688L101.784 47H100.946L102.85 43.8516ZM103.656 40.1318H106.354V47H105.599V40.7793H103.656C103.254 40.7793 102.926 40.847 102.672 40.9824C102.423 41.1136 102.239 41.2871 102.12 41.5029C102.006 41.7188 101.949 41.9494 101.949 42.1948C101.949 42.4276 102 42.6497 102.101 42.8613C102.207 43.0729 102.37 43.2464 102.59 43.3818C102.81 43.513 103.096 43.5786 103.447 43.5786H105.872V44.2324H103.447C103.087 44.2324 102.768 44.1816 102.488 44.0801C102.209 43.9785 101.972 43.8368 101.777 43.6548C101.587 43.4686 101.441 43.2507 101.339 43.001C101.242 42.7471 101.193 42.4741 101.193 42.1821C101.193 41.8859 101.246 41.6151 101.352 41.3696C101.462 41.12 101.621 40.902 101.828 40.7158C102.04 40.5296 102.298 40.3857 102.603 40.2842C102.911 40.1826 103.263 40.1318 103.656 40.1318ZM115.38 45.959L118.11 40.1318H118.865L115.647 47H115.114L111.902 40.1318H112.657L115.38 45.959ZM112.422 40.1318V47H111.667V40.1318H112.422ZM118.288 47V40.1318H119.049V47H118.288ZM125.27 45.7686V42.2266C125.27 41.9007 125.202 41.6193 125.067 41.3823C124.931 41.1453 124.733 40.9634 124.47 40.8364C124.208 40.7095 123.884 40.646 123.499 40.646C123.144 40.646 122.826 40.7095 122.547 40.8364C122.272 40.9591 122.054 41.1263 121.893 41.3379C121.736 41.5452 121.658 41.7759 121.658 42.0298L120.896 42.0234C120.896 41.7653 120.96 41.5156 121.087 41.2744C121.214 41.0332 121.394 40.8174 121.626 40.627C121.859 40.4365 122.136 40.2863 122.458 40.1763C122.784 40.062 123.141 40.0049 123.531 40.0049C124.022 40.0049 124.453 40.0874 124.826 40.2524C125.202 40.4175 125.496 40.665 125.708 40.9951C125.92 41.3252 126.025 41.7399 126.025 42.2393V45.5591C126.025 45.7961 126.042 46.0415 126.076 46.2954C126.114 46.5493 126.167 46.7588 126.235 46.9238V47H125.429C125.378 46.8477 125.338 46.6572 125.308 46.4287C125.283 46.196 125.27 45.9759 125.27 45.7686ZM125.448 43.001L125.46 43.585H123.969C123.579 43.585 123.23 43.6209 122.921 43.6929C122.617 43.7606 122.359 43.8621 122.147 43.9976C121.935 44.1287 121.772 44.2874 121.658 44.4736C121.548 44.6598 121.493 44.8714 121.493 45.1084C121.493 45.3538 121.555 45.5781 121.677 45.7812C121.804 45.9844 121.982 46.1473 122.21 46.27C122.443 46.3885 122.718 46.4478 123.036 46.4478C123.459 46.4478 123.831 46.3695 124.153 46.2129C124.479 46.0563 124.747 45.8511 124.959 45.5972C125.171 45.3433 125.312 45.0661 125.384 44.7656L125.714 45.2036C125.659 45.4152 125.558 45.6331 125.41 45.8574C125.266 46.0775 125.077 46.2848 124.845 46.4795C124.612 46.6699 124.337 46.8265 124.02 46.9492C123.706 47.0677 123.351 47.127 122.953 47.127C122.505 47.127 122.113 47.0423 121.779 46.873C121.449 46.7038 121.191 46.4731 121.004 46.1812C120.822 45.8849 120.731 45.5506 120.731 45.1782C120.731 44.8397 120.803 44.5371 120.947 44.2705C121.091 43.9997 121.299 43.7712 121.569 43.585C121.844 43.3945 122.174 43.2507 122.56 43.1533C122.949 43.0518 123.385 43.001 123.867 43.001H125.448ZM128.863 45.7686L132.576 40.1318H133.338V47H132.576V41.3633L128.863 47H128.114V40.1318H128.863V45.7686ZM131.878 37.6689H132.525C132.525 37.9863 132.451 38.2677 132.303 38.5132C132.159 38.7586 131.95 38.9512 131.675 39.0908C131.4 39.2305 131.074 39.3003 130.697 39.3003C130.13 39.3003 129.682 39.1479 129.352 38.8433C129.026 38.5386 128.863 38.1471 128.863 37.6689H129.504C129.504 37.9609 129.593 38.2148 129.771 38.4307C129.952 38.6423 130.261 38.748 130.697 38.748C131.12 38.748 131.423 38.6401 131.605 38.4243C131.787 38.2085 131.878 37.9567 131.878 37.6689ZM140.06 43.2041V43.8516H135.985V43.2041H140.06ZM136.182 40.1318V47H135.426V40.1318H136.182ZM140.644 40.1318V47H139.882V40.1318H140.644ZM143.488 45.7686L147.201 40.1318H147.963V47H147.201V41.3633L143.488 47H142.739V40.1318H143.488V45.7686ZM154.685 43.2041V43.8516H150.61V43.2041H154.685ZM150.807 40.1318V47H150.051V40.1318H150.807ZM155.269 40.1318V47H154.507V40.1318H155.269ZM161.591 40.1318V40.792H158.113V47H157.357V40.1318H161.591ZM166.974 45.7686V42.2266C166.974 41.9007 166.906 41.6193 166.771 41.3823C166.636 41.1453 166.437 40.9634 166.174 40.8364C165.912 40.7095 165.588 40.646 165.203 40.646C164.848 40.646 164.53 40.7095 164.251 40.8364C163.976 40.9591 163.758 41.1263 163.597 41.3379C163.441 41.5452 163.362 41.7759 163.362 42.0298L162.601 42.0234C162.601 41.7653 162.664 41.5156 162.791 41.2744C162.918 41.0332 163.098 40.8174 163.331 40.627C163.563 40.4365 163.84 40.2863 164.162 40.1763C164.488 40.062 164.846 40.0049 165.235 40.0049C165.726 40.0049 166.157 40.0874 166.53 40.2524C166.906 40.4175 167.201 40.665 167.412 40.9951C167.624 41.3252 167.729 41.7399 167.729 42.2393V45.5591C167.729 45.7961 167.746 46.0415 167.78 46.2954C167.818 46.5493 167.871 46.7588 167.939 46.9238V47H167.133C167.082 46.8477 167.042 46.6572 167.012 46.4287C166.987 46.196 166.974 45.9759 166.974 45.7686ZM167.152 43.001L167.165 43.585H165.673C165.284 43.585 164.934 43.6209 164.625 43.6929C164.321 43.7606 164.063 43.8621 163.851 43.9976C163.639 44.1287 163.477 44.2874 163.362 44.4736C163.252 44.6598 163.197 44.8714 163.197 45.1084C163.197 45.3538 163.259 45.5781 163.381 45.7812C163.508 45.9844 163.686 46.1473 163.915 46.27C164.147 46.3885 164.422 46.4478 164.74 46.4478C165.163 46.4478 165.535 46.3695 165.857 46.2129C166.183 46.0563 166.451 45.8511 166.663 45.5972C166.875 45.3433 167.016 45.0661 167.088 44.7656L167.418 45.2036C167.363 45.4152 167.262 45.6331 167.114 45.8574C166.97 46.0775 166.782 46.2848 166.549 46.4795C166.316 46.6699 166.041 46.8265 165.724 46.9492C165.41 47.0677 165.055 47.127 164.657 47.127C164.209 47.127 163.817 47.0423 163.483 46.873C163.153 46.7038 162.895 46.4731 162.708 46.1812C162.527 45.8849 162.436 45.5506 162.436 45.1782C162.436 44.8397 162.507 44.5371 162.651 44.2705C162.795 43.9997 163.003 43.7712 163.273 43.585C163.549 43.3945 163.879 43.2507 164.264 43.1533C164.653 43.0518 165.089 43.001 165.571 43.001H167.152Z" fill="#757575"/>
<defs>
<linearGradient id="paint0_linear_1621_2065" x1="23.9916" y1="42.0033" x2="23.9916" y2="26.2484" gradientUnits="userSpaceOnUse">
<stop stop-color="#7B59EB"/>
<stop offset="1" stop-color="#667AEF"/>
</linearGradient>
</defs>
</svg>
