<svg width="199" height="41" viewBox="0 0 199 41" fill="none" xmlns="http://www.w3.org/2000/svg">
<path d="M47.1913 10.8584L45.8283 12.2145L44.462 10.8552L41.7328 8.1398L39.0035 5.4244L36.2743 2.709L34.7859 1.22817C34.6026 1.04586 34.384 0.895538 34.1397 0.809183C33.4872 0.575703 32.7896 0.748414 32.3299 1.20898L30.819 2.7122L28.0897 5.4276L26.7203 6.7901L23.991 9.5055L21.2618 6.7901L19.8923 5.4276L17.1631 2.7122L15.6747 1.23136C15.4914 1.04906 15.2728 0.898735 15.0285 0.812379C14.3759 0.5789 13.6784 0.751612 13.2154 1.20898L11.7045 2.7122L8.97529 5.4276L6.24603 8.143L3.51678 10.8584L2.15376 12.2145L0.790737 10.8584C0.0385043 10.11 0.0385043 8.89461 0.790737 8.143L3.51999 5.4276L6.24925 2.7122L8.50595 0.466957C8.80813 0.166312 9.21639 0 9.64394 0H14.4338H19.2237C19.6512 0 20.0595 0.16951 20.3617 0.466957L22.6183 2.7122L23.9878 4.0747L25.3572 2.7122L27.6139 0.466957C27.9161 0.166312 28.3244 0 28.7519 0H33.5418H38.3317C38.7592 0 39.1675 0.16951 39.4697 0.466957L41.7264 2.7122L44.4556 5.4276L47.1849 8.143L47.1881 8.1462C47.9435 8.89462 47.9435 10.11 47.1913 10.8584Z" fill="#6CBCF8"/>
<path d="M41.7297 9.49907L39.473 7.25382C39.1708 6.95318 38.7625 6.78687 38.335 6.78687H33.5451H28.7553C28.3277 6.78687 27.9194 6.95638 27.6173 7.25382L25.3606 9.49907L23.9911 10.8616L22.6217 9.49907L20.365 7.25382C20.0628 6.95318 19.6545 6.78687 19.227 6.78687H14.4371H9.64726C9.21971 6.78687 8.81144 6.95638 8.50926 7.25382L6.25256 9.49907L3.52331 12.2145L2.8418 12.8925L5.57105 15.6079L6.25256 14.9299L8.98182 12.2145L11.7111 9.49907L13.222 7.99584C13.5434 7.67601 13.9838 7.4937 14.4403 7.4937C14.8968 7.4937 15.334 7.67281 15.6587 7.99584L17.1696 9.49907L19.8988 12.2145L21.2683 13.577L22.6249 14.9267L23.361 15.6591L23.9943 16.2892L25.3638 14.9267L26.7204 13.577L28.0898 12.2145L30.8191 9.49907L32.33 7.99584C32.6514 7.67601 33.0919 7.4937 33.5483 7.4937C34.0048 7.4937 34.442 7.67281 34.7667 7.99584L36.2776 9.49907L39.0068 12.2145L41.7361 14.9299L42.4208 15.6111L45.1501 12.8957L44.4654 12.2145L41.7297 9.49907Z" fill="#619AF3"/>
<path d="M39.4733 14.0407C39.1711 13.74 38.7629 13.5737 38.3353 13.5737H33.5455H28.7556C28.3281 13.5737 27.9198 13.7432 27.6176 14.0407L25.3609 16.2859L25.3545 16.2923H30.8098L30.8162 16.2859L32.3271 14.7827C32.6486 14.4629 33.089 14.2806 33.5455 14.2806C34.002 14.2806 34.4392 14.4597 34.7638 14.7827L36.2747 16.2859L36.2812 16.2923H41.7364L41.73 16.2859L39.4733 14.0407Z" fill="#667AEF"/>
<path d="M20.362 14.0407C20.0598 13.74 19.6516 13.5737 19.224 13.5737H14.4341H9.64429C9.21674 13.5737 8.80847 13.7432 8.50629 14.0407L6.24959 16.2859L6.24316 16.2923H11.6985L11.7049 16.2859L13.2158 14.7827C13.5373 14.4629 13.9777 14.2806 14.4341 14.2806C14.8906 14.2806 15.3278 14.4597 15.6525 14.7827L17.1634 16.2859L17.1698 16.2923H22.6251L22.6187 16.2859L20.362 14.0407Z" fill="#667AEF"/>
<path d="M40.7683 17.2488L25.6015 32.3418C24.7142 33.2245 23.2741 33.2245 22.3868 32.3418L7.2168 17.2488H17.0698C17.7513 17.2488 18.4071 17.5174 18.8893 17.9972L22.5283 21.6177C23.3384 22.4237 24.65 22.4237 25.4601 21.6177L29.0991 17.9972C29.5813 17.5174 30.2371 17.2488 30.9186 17.2488H40.7683Z" fill="url(#paint0_linear_1621_2357)"/>
<path d="M123.831 6.34118V7.10301C123.061 6.53607 122.113 6.19502 121.084 6.19502H118.992C116.437 6.19502 114.358 8.26346 114.358 10.8058C114.358 13.3482 116.437 15.4166 118.992 15.4166H121.084C122.113 15.4166 123.061 15.0756 123.831 14.5087V17.1175H116.241V18.991H123.831H124.775H125.719V6.33676H123.831V6.34118ZM121.084 13.5431H118.992C117.478 13.5431 116.245 12.3162 116.245 10.8103C116.245 9.30433 117.478 8.07744 118.992 8.07744H121.084C122.598 8.07744 123.831 9.30433 123.831 10.8147C123.831 12.3162 122.598 13.5431 121.084 13.5431ZM112.612 10.8058V15.3635H110.729V10.8058C110.729 9.29547 109.496 8.06858 107.983 8.06858H105.89C104.377 8.06858 103.143 9.29547 103.143 10.8014V15.3015H101.26V10.8014V6.31904H103.143V7.09858C103.914 6.53164 104.862 6.19059 105.89 6.19059H107.983C110.533 6.19945 112.612 8.26346 112.612 10.8058ZM97.1513 4.04242V3.61722C97.1513 3.099 97.5743 2.67822 98.0951 2.67822C98.616 2.67822 99.0389 3.099 99.0389 3.61722V4.04242C99.0389 4.56064 98.616 4.98142 98.0951 4.98142C97.5698 4.98142 97.1513 4.56064 97.1513 4.04242ZM97.1513 6.32347H99.0345V15.3103H97.1513V6.32347ZM94.9343 10.8058V15.3635H93.0512V10.8058C93.0512 9.29547 91.8181 8.06858 90.3045 8.06858H88.2121C86.6985 8.06858 85.4653 9.29547 85.4653 10.8014V15.3015H83.5822V10.8014V6.31904H85.4653V7.09858C86.2355 6.53164 87.1837 6.19059 88.2121 6.19059H90.3045C92.8553 6.19945 94.9343 8.26346 94.9343 10.8058ZM79.4732 4.04242V3.61722C79.4732 3.099 79.8961 2.67822 80.417 2.67822C80.9378 2.67822 81.3608 3.099 81.3608 3.61722V4.04242C81.3608 4.56064 80.9378 4.98142 80.417 4.98142C79.8961 4.98142 79.4732 4.56064 79.4732 4.04242ZM79.4732 6.32347H81.3563V15.3103H79.4732V6.32347ZM74.3225 2.68266H77.2606V15.2616H75.3775V4.55621H75.2974L69.6748 12.4269L64.0521 4.55621H63.972V15.2616H62.0889V2.68266H65.0271L69.6792 9.18917L74.3225 2.68266Z" fill="#0F1A4D"/>
<path d="M180.939 6.19941H178.847C176.291 6.19941 174.212 8.26785 174.212 10.8102C174.212 13.3526 176.291 15.421 178.847 15.421H180.939C183.494 15.421 185.573 13.3526 185.573 10.8102C185.573 8.26342 183.494 6.19941 180.939 6.19941ZM180.939 13.5431H178.847C177.333 13.5431 176.1 12.3162 176.1 10.8102C176.1 9.30429 177.333 8.0774 178.847 8.0774H180.939C182.453 8.0774 183.686 9.30429 183.686 10.8147C183.686 12.3162 182.453 13.5431 180.939 13.5431ZM142.092 2.68262H134.685V15.421H142.092C144.648 15.421 146.727 13.3526 146.727 10.8102V7.29343C146.727 4.75106 144.648 2.68262 142.092 2.68262ZM144.839 10.8058C144.839 12.3117 143.606 13.5386 142.092 13.5386H136.568V4.55175H142.092C143.606 4.55175 144.839 5.77864 144.839 7.28457V10.8058ZM168.305 6.19941H166.212C165.184 6.19941 164.231 6.54046 163.466 7.1074V6.34558H161.582V18.9998H163.466V14.5175C164.236 15.0844 165.184 15.4255 166.212 15.4255H168.305C170.86 15.4255 172.939 13.357 172.939 10.8147C172.939 8.26343 170.86 6.19941 168.305 6.19941ZM168.305 13.5431H166.212C164.699 13.5431 163.466 12.3162 163.466 10.8102C163.466 9.30429 164.699 8.0774 166.212 8.0774H168.305C169.818 8.0774 171.051 9.30429 171.051 10.8147C171.051 12.3162 169.818 13.5431 168.305 13.5431ZM195.741 13.5431V15.4166H188.836V8.07297H186.78V6.19941H188.836V2.74905H190.72V6.19941H195.051V8.07297H190.72V13.5431H195.741ZM155.043 6.19941H152.95C150.395 6.19941 148.316 8.26785 148.316 10.8102C148.316 13.3526 150.395 15.421 152.95 15.421H154.201H155.047H158.764V13.5475H155.145V13.5431C155.114 13.5431 155.078 13.5475 155.047 13.5475H154.201H152.95C151.766 13.5475 150.756 12.7989 150.368 11.7492H159.677V10.8102C159.673 8.26342 157.594 6.19941 155.043 6.19941ZM150.364 9.87123C150.751 8.82151 151.762 8.07297 152.946 8.07297H155.038C156.222 8.07297 157.233 8.82151 157.62 9.87123H150.364Z" fill="#0F1A4D"/>
<path d="M65.3545 33.5566H62.752L62.7393 32.8965H64.98C65.437 32.8965 65.8263 32.8309 66.1479 32.6997C66.4696 32.5685 66.7129 32.3739 66.8779 32.1157C67.0472 31.8534 67.1318 31.5317 67.1318 31.1509C67.1318 30.7616 67.0493 30.4399 66.8843 30.186C66.7192 29.9279 66.4717 29.7375 66.1416 29.6147C65.8115 29.492 65.3968 29.4307 64.8975 29.4307H62.9551V38H62.1743V28.7578H64.8975C65.3672 28.7578 65.7882 28.8044 66.1606 28.8975C66.533 28.9906 66.8504 29.1366 67.1128 29.3354C67.3752 29.5343 67.5741 29.7861 67.7095 30.0908C67.8491 30.3913 67.9189 30.751 67.9189 31.1699C67.9189 31.5508 67.8343 31.8957 67.665 32.2046C67.4958 32.5093 67.2567 32.759 66.9478 32.9536C66.6431 33.144 66.277 33.2625 65.8496 33.3091L65.3545 33.5566ZM65.2974 38H62.5044L62.9043 37.3335H65.2974C65.7544 37.3335 66.1437 37.2573 66.4653 37.105C66.7912 36.9484 67.0409 36.7262 67.2144 36.4385C67.3879 36.1507 67.4746 35.8079 67.4746 35.4102C67.4746 35.0589 67.3984 34.7437 67.2461 34.4644C67.0938 34.1851 66.861 33.965 66.5479 33.8042C66.2347 33.6392 65.8369 33.5566 65.3545 33.5566H63.7358L63.7485 32.8965H66.04L66.1797 33.1313C66.5944 33.1737 66.9562 33.3027 67.2651 33.5186C67.5783 33.7301 67.8195 33.9989 67.9888 34.3247C68.1623 34.6506 68.249 35.0081 68.249 35.3975C68.249 35.9561 68.1242 36.43 67.8745 36.8193C67.6291 37.2044 67.2842 37.4985 66.8398 37.7017C66.3997 37.9006 65.8856 38 65.2974 38ZM72.502 37.4731C72.8236 37.4731 73.124 37.4139 73.4033 37.2954C73.6868 37.1727 73.9196 36.9928 74.1016 36.7559C74.2878 36.5146 74.3936 36.2205 74.4189 35.8735H75.1426C75.1214 36.3094 74.9881 36.6987 74.7427 37.0415C74.5015 37.38 74.1841 37.6466 73.7905 37.8413C73.4012 38.0317 72.9717 38.127 72.502 38.127C72.0238 38.127 71.6006 38.0402 71.2324 37.8667C70.8685 37.6932 70.5638 37.452 70.3184 37.1431C70.0729 36.8299 69.8867 36.466 69.7598 36.0513C69.637 35.6323 69.5757 35.1816 69.5757 34.6992V34.4326C69.5757 33.9502 69.637 33.5016 69.7598 33.0869C69.8867 32.668 70.0729 32.304 70.3184 31.9951C70.5638 31.682 70.8685 31.4386 71.2324 31.2651C71.5964 31.0916 72.0174 31.0049 72.4956 31.0049C72.9865 31.0049 73.4266 31.1043 73.8159 31.3032C74.2095 31.5021 74.5226 31.7835 74.7554 32.1475C74.9924 32.5114 75.1214 32.943 75.1426 33.4424H74.4189C74.3978 33.0742 74.3005 32.7568 74.127 32.4902C73.9535 32.2236 73.7249 32.0184 73.4414 31.8745C73.1579 31.7306 72.8426 31.6587 72.4956 31.6587C72.1063 31.6587 71.7741 31.7349 71.499 31.8872C71.224 32.0353 70.9997 32.2406 70.8262 32.5029C70.6569 32.7611 70.5321 33.0573 70.4517 33.3916C70.3713 33.7217 70.3311 34.0687 70.3311 34.4326V34.6992C70.3311 35.0674 70.3691 35.4186 70.4453 35.7529C70.5257 36.083 70.6506 36.3771 70.8198 36.6353C70.9933 36.8934 71.2176 37.0986 71.4927 37.251C71.772 37.3991 72.1084 37.4731 72.502 37.4731ZM79.3257 38.127C78.8771 38.127 78.4645 38.0444 78.0879 37.8794C77.7155 37.7144 77.3896 37.4816 77.1104 37.1812C76.8353 36.8807 76.6216 36.5252 76.4692 36.1147C76.3211 35.7 76.2471 35.2472 76.2471 34.7563V34.4834C76.2471 33.9544 76.3254 33.4762 76.4819 33.0488C76.6385 32.6214 76.8543 32.2554 77.1294 31.9507C77.4045 31.646 77.7176 31.4132 78.0688 31.2524C78.4243 31.0874 78.7967 31.0049 79.186 31.0049C79.6219 31.0049 80.0091 31.0832 80.3477 31.2397C80.6862 31.3921 80.9697 31.61 81.1982 31.8936C81.431 32.1729 81.6066 32.505 81.7251 32.8901C81.8436 33.271 81.9028 33.6921 81.9028 34.1533V34.6167H76.7041V33.9692H81.1475V33.8804C81.139 33.4953 81.0607 33.1356 80.9126 32.8013C80.7687 32.4627 80.5529 32.1877 80.2651 31.9761C79.9774 31.7645 79.6177 31.6587 79.186 31.6587C78.8644 31.6587 78.5682 31.7264 78.2974 31.8618C78.0308 31.9972 77.8001 32.1919 77.6055 32.4458C77.415 32.6955 77.2669 32.9938 77.1611 33.3408C77.0596 33.6836 77.0088 34.0645 77.0088 34.4834V34.7563C77.0088 35.1372 77.0638 35.4927 77.1738 35.8228C77.2881 36.1486 77.4489 36.4364 77.6562 36.686C77.8678 36.9357 78.1175 37.1304 78.4053 37.27C78.693 37.4097 79.0104 37.4795 79.3574 37.4795C79.7637 37.4795 80.1234 37.4054 80.4365 37.2573C80.7497 37.105 81.0311 36.8659 81.2808 36.54L81.7568 36.9082C81.6087 37.1283 81.4225 37.3314 81.1982 37.5176C80.9782 37.7038 80.7137 37.8519 80.4048 37.9619C80.0959 38.0719 79.7362 38.127 79.3257 38.127ZM87.7935 31.1318H88.5488L88.4346 33.6074C88.4049 34.2676 88.3309 34.841 88.2124 35.3276C88.0981 35.8101 87.9564 36.2227 87.7871 36.5654C87.6178 36.904 87.4316 37.1896 87.2285 37.4224C87.0296 37.6509 86.8265 37.8434 86.6191 38H86.2065L86.2192 37.3525L86.4097 37.3462C86.5324 37.1981 86.6593 37.0309 86.7905 36.8447C86.9259 36.6543 87.055 36.4215 87.1777 36.1465C87.3005 35.8714 87.4062 35.5286 87.4951 35.1182C87.584 34.7077 87.6432 34.2041 87.6729 33.6074L87.7935 31.1318ZM88.041 31.1318H91.8433V38H91.0879V31.8428H88.041V31.1318ZM85.9146 37.3462H92.5605V40.0186H91.7988V38H86.6382V40.0186H85.9146V37.3462ZM98.686 31.1318V31.792H95.2075V31.1318H98.686ZM99.3018 31.1318V38H98.5464V31.1318H99.3018ZM95.0044 31.1318H95.7598L95.6074 34.3501C95.582 34.8706 95.5397 35.3319 95.4805 35.7339C95.4255 36.1359 95.3493 36.4808 95.252 36.7686C95.1546 37.0521 95.0298 37.2848 94.8774 37.4668C94.7293 37.6488 94.5495 37.7842 94.3379 37.873C94.1263 37.9577 93.8787 38 93.5952 38H93.3096V37.3145L93.5444 37.3081C93.7264 37.2996 93.8851 37.2616 94.0205 37.1938C94.1602 37.1261 94.2786 37.0182 94.376 36.8701C94.4775 36.722 94.5601 36.5273 94.6235 36.2861C94.6912 36.0449 94.7441 35.7508 94.7822 35.4038C94.8245 35.0526 94.8563 34.64 94.8774 34.166L95.0044 31.1318ZM102.85 34.8516H103.688L101.784 38H100.946L102.85 34.8516ZM103.656 31.1318H106.354V38H105.599V31.7793H103.656C103.254 31.7793 102.926 31.847 102.672 31.9824C102.423 32.1136 102.239 32.2871 102.12 32.5029C102.006 32.7188 101.949 32.9494 101.949 33.1948C101.949 33.4276 102 33.6497 102.101 33.8613C102.207 34.0729 102.37 34.2464 102.59 34.3818C102.81 34.513 103.096 34.5786 103.447 34.5786H105.872V35.2324H103.447C103.087 35.2324 102.768 35.1816 102.488 35.0801C102.209 34.9785 101.972 34.8368 101.777 34.6548C101.587 34.4686 101.441 34.2507 101.339 34.001C101.242 33.7471 101.193 33.4741 101.193 33.1821C101.193 32.8859 101.246 32.6151 101.352 32.3696C101.462 32.12 101.621 31.902 101.828 31.7158C102.04 31.5296 102.298 31.3857 102.603 31.2842C102.911 31.1826 103.263 31.1318 103.656 31.1318ZM115.38 36.959L118.11 31.1318H118.865L115.647 38H115.114L111.902 31.1318H112.657L115.38 36.959ZM112.422 31.1318V38H111.667V31.1318H112.422ZM118.288 38V31.1318H119.049V38H118.288ZM125.27 36.7686V33.2266C125.27 32.9007 125.202 32.6193 125.067 32.3823C124.931 32.1453 124.733 31.9634 124.47 31.8364C124.208 31.7095 123.884 31.646 123.499 31.646C123.144 31.646 122.826 31.7095 122.547 31.8364C122.272 31.9591 122.054 32.1263 121.893 32.3379C121.736 32.5452 121.658 32.7759 121.658 33.0298L120.896 33.0234C120.896 32.7653 120.96 32.5156 121.087 32.2744C121.214 32.0332 121.394 31.8174 121.626 31.627C121.859 31.4365 122.136 31.2863 122.458 31.1763C122.784 31.062 123.141 31.0049 123.531 31.0049C124.022 31.0049 124.453 31.0874 124.826 31.2524C125.202 31.4175 125.496 31.665 125.708 31.9951C125.92 32.3252 126.025 32.7399 126.025 33.2393V36.5591C126.025 36.7961 126.042 37.0415 126.076 37.2954C126.114 37.5493 126.167 37.7588 126.235 37.9238V38H125.429C125.378 37.8477 125.338 37.6572 125.308 37.4287C125.283 37.196 125.27 36.9759 125.27 36.7686ZM125.448 34.001L125.46 34.585H123.969C123.579 34.585 123.23 34.6209 122.921 34.6929C122.617 34.7606 122.359 34.8621 122.147 34.9976C121.935 35.1287 121.772 35.2874 121.658 35.4736C121.548 35.6598 121.493 35.8714 121.493 36.1084C121.493 36.3538 121.555 36.5781 121.677 36.7812C121.804 36.9844 121.982 37.1473 122.21 37.27C122.443 37.3885 122.718 37.4478 123.036 37.4478C123.459 37.4478 123.831 37.3695 124.153 37.2129C124.479 37.0563 124.747 36.8511 124.959 36.5972C125.171 36.3433 125.312 36.0661 125.384 35.7656L125.714 36.2036C125.659 36.4152 125.558 36.6331 125.41 36.8574C125.266 37.0775 125.077 37.2848 124.845 37.4795C124.612 37.6699 124.337 37.8265 124.02 37.9492C123.706 38.0677 123.351 38.127 122.953 38.127C122.505 38.127 122.113 38.0423 121.779 37.873C121.449 37.7038 121.191 37.4731 121.004 37.1812C120.822 36.8849 120.731 36.5506 120.731 36.1782C120.731 35.8397 120.803 35.5371 120.947 35.2705C121.091 34.9997 121.299 34.7712 121.569 34.585C121.844 34.3945 122.174 34.2507 122.56 34.1533C122.949 34.0518 123.385 34.001 123.867 34.001H125.448ZM128.863 36.7686L132.576 31.1318H133.338V38H132.576V32.3633L128.863 38H128.114V31.1318H128.863V36.7686ZM131.878 28.6689H132.525C132.525 28.9863 132.451 29.2677 132.303 29.5132C132.159 29.7586 131.95 29.9512 131.675 30.0908C131.4 30.2305 131.074 30.3003 130.697 30.3003C130.13 30.3003 129.682 30.1479 129.352 29.8433C129.026 29.5386 128.863 29.1471 128.863 28.6689H129.504C129.504 28.9609 129.593 29.2148 129.771 29.4307C129.952 29.6423 130.261 29.748 130.697 29.748C131.12 29.748 131.423 29.6401 131.605 29.4243C131.787 29.2085 131.878 28.9567 131.878 28.6689ZM140.06 34.2041V34.8516H135.985V34.2041H140.06ZM136.182 31.1318V38H135.426V31.1318H136.182ZM140.644 31.1318V38H139.882V31.1318H140.644ZM143.488 36.7686L147.201 31.1318H147.963V38H147.201V32.3633L143.488 38H142.739V31.1318H143.488V36.7686ZM154.685 34.2041V34.8516H150.61V34.2041H154.685ZM150.807 31.1318V38H150.051V31.1318H150.807ZM155.269 31.1318V38H154.507V31.1318H155.269ZM161.591 31.1318V31.792H158.113V38H157.357V31.1318H161.591ZM166.974 36.7686V33.2266C166.974 32.9007 166.906 32.6193 166.771 32.3823C166.636 32.1453 166.437 31.9634 166.174 31.8364C165.912 31.7095 165.588 31.646 165.203 31.646C164.848 31.646 164.53 31.7095 164.251 31.8364C163.976 31.9591 163.758 32.1263 163.597 32.3379C163.441 32.5452 163.362 32.7759 163.362 33.0298L162.601 33.0234C162.601 32.7653 162.664 32.5156 162.791 32.2744C162.918 32.0332 163.098 31.8174 163.331 31.627C163.563 31.4365 163.84 31.2863 164.162 31.1763C164.488 31.062 164.846 31.0049 165.235 31.0049C165.726 31.0049 166.157 31.0874 166.53 31.2524C166.906 31.4175 167.201 31.665 167.412 31.9951C167.624 32.3252 167.729 32.7399 167.729 33.2393V36.5591C167.729 36.7961 167.746 37.0415 167.78 37.2954C167.818 37.5493 167.871 37.7588 167.939 37.9238V38H167.133C167.082 37.8477 167.042 37.6572 167.012 37.4287C166.987 37.196 166.974 36.9759 166.974 36.7686ZM167.152 34.001L167.165 34.585H165.673C165.284 34.585 164.934 34.6209 164.625 34.6929C164.321 34.7606 164.063 34.8621 163.851 34.9976C163.639 35.1287 163.477 35.2874 163.362 35.4736C163.252 35.6598 163.197 35.8714 163.197 36.1084C163.197 36.3538 163.259 36.5781 163.381 36.7812C163.508 36.9844 163.686 37.1473 163.915 37.27C164.147 37.3885 164.422 37.4478 164.74 37.4478C165.163 37.4478 165.535 37.3695 165.857 37.2129C166.183 37.0563 166.451 36.8511 166.663 36.5972C166.875 36.3433 167.016 36.0661 167.088 35.7656L167.418 36.2036C167.363 36.4152 167.262 36.6331 167.114 36.8574C166.97 37.0775 166.782 37.2848 166.549 37.4795C166.316 37.6699 166.041 37.8265 165.724 37.9492C165.41 38.0677 165.055 38.127 164.657 38.127C164.209 38.127 163.817 38.0423 163.483 37.873C163.153 37.7038 162.895 37.4731 162.708 37.1812C162.527 36.8849 162.436 36.5506 162.436 36.1782C162.436 35.8397 162.507 35.5371 162.651 35.2705C162.795 34.9997 163.003 34.7712 163.273 34.585C163.549 34.3945 163.879 34.2507 164.264 34.1533C164.653 34.0518 165.089 34.001 165.571 34.001H167.152Z" fill="#757575"/>
<defs>
<linearGradient id="paint0_linear_1621_2357" x1="23.9916" y1="33.0033" x2="23.9916" y2="17.2484" gradientUnits="userSpaceOnUse">
<stop stop-color="#7B59EB"/>
<stop offset="1" stop-color="#667AEF"/>
</linearGradient>
</defs>
</svg>
