<svg width="77" height="54" viewBox="0 0 77 54" fill="none" xmlns="http://www.w3.org/2000/svg">
<path d="M75.7504 17.5916L73.5631 19.7697L71.3705 17.5864L66.9906 13.225L62.6106 8.86354L58.2307 4.5021L55.8421 2.1236C55.548 1.83079 55.1972 1.58934 54.8051 1.45064C53.7579 1.07563 52.6384 1.35303 51.9006 2.09278L49.4759 4.50724L45.096 8.86868L42.8983 11.0571L38.5183 15.4185L34.1384 11.0571L31.9407 8.86868L27.5608 4.50724L25.1722 2.12874C24.8781 1.83592 24.5273 1.59448 24.1352 1.45577C23.0879 1.08076 21.9685 1.35817 21.2256 2.09278L18.8009 4.50724L14.4209 8.86868L10.041 13.2301L5.66104 17.5916L3.47364 19.7697L1.28625 17.5916C0.0790612 16.3895 0.0790612 14.4373 1.28625 13.2301L5.6662 8.86868L10.0461 4.50724L13.6677 0.900959C14.1527 0.418067 14.8078 0.15094 15.494 0.15094H23.1808H30.8676C31.5538 0.15094 32.209 0.423204 32.6939 0.900959L36.3155 4.50724L38.5132 6.69566L40.7109 4.50724L44.3325 0.900959C44.8174 0.418067 45.4726 0.15094 46.1587 0.15094H53.8456H61.5324C62.2185 0.15094 62.8737 0.423204 63.3587 0.900959L66.9802 4.50724L71.3602 8.86868L75.7401 13.2301L75.7453 13.2353C76.9576 14.4373 76.9576 16.3895 75.7504 17.5916Z" fill="#CECECE"/>
<path d="M66.9859 15.4082L63.3643 11.802C62.8793 11.3191 62.2242 11.0519 61.538 11.0519H53.8512H46.1644C45.4782 11.0519 44.823 11.3242 44.3381 11.802L40.7165 15.4082L38.5188 17.5967L36.3211 15.4082L32.6995 11.802C32.2146 11.3191 31.5594 11.0519 30.8733 11.0519H23.1864H15.4996C14.8135 11.0519 14.1583 11.3242 13.6733 11.802L10.0518 15.4082L5.67182 19.7697L4.57812 20.8588L8.95807 25.2202L10.0518 24.1311L14.4317 19.7697L18.8117 15.4082L21.2364 12.9938C21.7522 12.4801 22.459 12.1872 23.1916 12.1872C23.9242 12.1872 24.6258 12.4749 25.1468 12.9938L27.5715 15.4082L31.9515 19.7697L34.1492 21.9581L36.3263 24.126L37.5077 25.3024L38.524 26.3144L40.7217 24.126L42.8988 21.9581L45.0965 19.7697L49.4764 15.4082L51.9011 12.9938C52.417 12.4801 53.1238 12.1872 53.8564 12.1872C54.5889 12.1872 55.2905 12.4749 55.8116 12.9938L58.2363 15.4082L62.6162 19.7697L66.9962 24.1311L68.095 25.2253L72.475 20.8639L71.3761 19.7697L66.9859 15.4082Z" fill="#B7B7B7"/>
<path d="M63.3641 22.7031C62.8792 22.2202 62.224 21.9531 61.5379 21.9531H53.851H46.1642C45.4781 21.9531 44.8229 22.2254 44.3379 22.7031L40.7164 26.3094L40.7061 26.3197H49.4608L49.4711 26.3094L51.8958 23.8949C52.4117 23.3812 53.1185 23.0884 53.851 23.0884C54.5836 23.0884 55.2852 23.3761 55.8063 23.8949L58.231 26.3094L58.2413 26.3197H66.996L66.9857 26.3094L63.3641 22.7031Z" fill="#9F9F9F"/>
<path d="M32.6942 22.7031C32.2093 22.2202 31.5541 21.9531 30.8679 21.9531H23.1811H15.4943C14.8082 21.9531 14.153 22.2254 13.668 22.7031L10.0465 26.3094L10.0361 26.3197H18.7909L18.8012 26.3094L21.2259 23.8949C21.7418 23.3812 22.4486 23.0884 23.1811 23.0884C23.9137 23.0884 24.6153 23.3761 25.1364 23.8949L27.5611 26.3094L27.5714 26.3197H36.3261L36.3158 26.3094L32.6942 22.7031Z" fill="#9F9F9F"/>
<path d="M65.4425 27.8557L41.1026 52.0979C39.6788 53.5157 37.3676 53.5157 35.9437 52.0979L11.5986 27.8557H27.4108C28.5045 27.8557 29.5569 28.2872 30.3308 29.0577L36.1707 34.873C37.4707 36.1676 39.5756 36.1676 40.8756 34.873L46.7156 29.0577C47.4894 28.2872 48.5418 27.8557 49.6355 27.8557H65.4425Z" fill="#878787"/>
</svg>
